<?xml version="1.0" standalone="no"?>
<!DOCTYPE svg PUBLIC "-//W3C//DTD SVG 20010904//EN"
 "http://www.w3.org/TR/2001/REC-SVG-20010904/DTD/svg10.dtd">
<svg version="1.0" xmlns="http://www.w3.org/2000/svg"
 width="700.000000pt" height="700.000000pt" viewBox="0 0 700.000000 700.000000"
 preserveAspectRatio="xMidYMid meet">
<metadata>
Created by potrace 1.11, written by Peter Selinger 2001-2013
</metadata>
<g transform="translate(0.000000,700.000000) scale(0.100000,-0.100000)"
fill="#000000" stroke="none">
<path d="M3240 6994 c-116 -11 -315 -38 -405 -56 -1408 -277 -2496 -1365
-2773 -2773 -46 -232 -57 -357 -57 -665 0 -308 11 -433 57 -665 277 -1408
1365 -2496 2773 -2773 232 -46 357 -57 665 -57 308 0 433 11 665 57 1408 277
2496 1365 2773 2773 46 232 57 357 57 665 0 308 -11 433 -57 665 -275 1401
-1351 2482 -2753 2770 -202 41 -357 56 -630 59 -148 2 -290 2 -315 0z m1849
-1128 c51 -15 98 -29 103 -32 5 -4 -159 -176 -366 -383 -338 -340 -379 -384
-406 -443 -40 -86 -54 -172 -41 -256 37 -241 262 -409 498 -372 143 22 159 35
574 447 207 206 379 370 383 365 3 -5 17 -52 32 -103 35 -127 43 -324 20 -458
-62 -354 -277 -639 -601 -796 -189 -92 -374 -126 -576 -105 -92 9 -273 50
-288 66 -3 3 -278 -268 -612 -602 l-607 -607 19 -54 c66 -194 73 -424 17 -633
-26 -101 -114 -279 -179 -365 -172 -227 -411 -372 -690 -421 -134 -23 -331
-15 -458 20 -51 15 -98 29 -103 32 -5 4 159 176 365 383 328 330 378 384 406
441 132 271 -31 583 -330 631 -81 13 -175 -2 -260 -42 -55 -26 -109 -75 -441
-406 l-377 -376 -11 29 c-41 107 -55 200 -54 369 0 152 3 181 27 270 89 331
329 603 645 731 149 60 238 77 407 77 144 0 236 -14 346 -52 l54 -19 606 605
607 606 -19 54 c-55 161 -70 403 -35 568 91 423 421 752 847 845 137 29 364
23 498 -14z"/>
</g>
</svg>
